<?xml version="1.0" standalone="no"?><!DOCTYPE svg PUBLIC "-//W3C//DTD SVG 1.1//EN" "http://www.w3.org/Graphics/SVG/1.1/DTD/svg11.dtd"><svg t="1771831506632" class="icon" viewBox="0 0 1024 1024" version="1.1" xmlns="http://www.w3.org/2000/svg" p-id="19554" xmlns:xlink="http://www.w3.org/1999/xlink" width="64" height="64"><path d="M928 161.002667H699.2c-49.109333 0-97.109333 14.08-138.389333 40.704L512 233.002667l-48.810667-31.296a255.210667 255.210667 0 0 0-138.389333-40.704H96c-17.706667 0-32 14.293333-32 32v568c0 17.706667 14.293333 32 32 32h228.8c49.109333 0 97.109333 14.08 138.389333 40.704l44.416 28.586666a8.32 8.32 0 0 0 4.288 1.301334c1.493333 0 2.986667-0.405333 4.309334-1.28l44.394666-28.608a256.362667 256.362667 0 0 1 138.602667-40.704H928c17.706667 0 32-14.293333 32-32V193.002667c0-17.706667-14.293333-32-32-32z m-603.2 560h-188.8V233.002667h188.8c35.413333 0 69.802667 10.090667 99.498667 29.205333l48.810666 31.296 6.890667 4.48v462.016a327.253333 327.253333 0 0 0-155.2-38.997333z m563.2 0h-188.8c-54.4 0-107.605333 13.397333-155.2 38.997333V298.005333l6.890667-4.501333 48.810666-31.296a183.552 183.552 0 0 1 99.498667-29.226667h188.8v488.021334z m-491.093333-360h-185.813334c-3.882667 0-7.082667 3.413333-7.082666 7.488v45.013333c0 4.096 3.2 7.488 7.082666 7.488H396.8c3.904 0 7.104-3.392 7.104-7.488v-45.013333a7.210667 7.210667 0 0 0-6.997333-7.488z m223.082666 7.488v45.013333c0 4.096 3.2 7.488 7.104 7.488H812.8c3.904 0 7.104-3.392 7.104-7.488v-45.013333c0-4.096-3.2-7.488-7.104-7.488h-185.706667c-3.904 0-7.082667 3.413333-7.082666 7.488z m-223.082666 132.501333h-185.813334c-3.882667 0-7.082667 3.413333-7.082666 7.509333v45.013334c0 4.074667 3.2 7.466667 7.082666 7.466666H396.8c3.904 0 7.104-3.392 7.104-7.466666v-45.013334a7.210667 7.210667 0 0 0-6.997333-7.509333z m416 0h-185.813334c-3.904 0-7.082667 3.413333-7.082666 7.509333v45.013334c0 4.074667 3.2 7.466667 7.082666 7.466666H812.8c3.904 0 7.104-3.392 7.104-7.466666v-45.013334a7.210667 7.210667 0 0 0-6.997333-7.509333z" fill="#cdcdcd" p-id="19555"></path></svg>