<?xml version="1.0" standalone="no"?><!DOCTYPE svg PUBLIC "-//W3C//DTD SVG 1.1//EN" "http://www.w3.org/Graphics/SVG/1.1/DTD/svg11.dtd"><svg t="1771831611188" class="icon" viewBox="0 0 1024 1024" version="1.1" xmlns="http://www.w3.org/2000/svg" p-id="23341" xmlns:xlink="http://www.w3.org/1999/xlink" width="64" height="64"><path d="M825.598453 649.885829a440.134318 440.134318 0 0 0-179.492277-112.096709 285.399597 285.399597 0 1 0-268.20685 0 438.758899 438.758899 0 0 0-179.492277 112.096709A454.576226 454.576226 0 0 0 69.117593 969.67092v28.883815a26.820685 26.820685 0 0 0 26.820685 24.757555h831.441236a26.820685 26.820685 0 0 0 26.820685-24.757555v-28.883815A455.951645 455.951645 0 0 0 825.598453 649.885829z m-546.041639-364.486232a232.445937 232.445937 0 1 1 249.638684 231.758227h-34.385494a232.445937 232.445937 0 0 1-215.25319-231.758227z m618.938885 687.709872H122.758963a395.433177 395.433177 0 0 1 371.363331-402.310275h35.760914a395.433177 395.433177 0 0 1 372.05104 398.871726z" p-id="23342" fill="#cdcdcd"></path></svg>