<svg 
 xmlns="http://www.w3.org/2000/svg"
 xmlns:xlink="http://www.w3.org/1999/xlink"
 width="45px" height="49px">
<path fill-rule="evenodd"  fill="rgb(95, 217, 160)"
 d="M44.561,8.373 L44.561,34.259 C44.561,34.259 44.825,36.309 41.489,38.156 L25.11,47.898 C25.11,47.898 22.145,49.76 19.984,47.898 L1.831,37.43 C1.831,37.43 0.61,35.544 0.435,33.981 L0.435,7.538 C0.435,7.538 0.21,3.640 4.903,2.806 C4.903,2.806 18.944,0.511 21.660,0.579 C21.660,0.579 34.676,0.885 41.489,3.84 C41.489,3.84 45.50,4.296 44.561,8.373 ZM39.547,5.273 C33.431,3.299 21.746,3.25 21.746,3.25 C19.307,2.964 6.702,5.24 6.702,5.24 C2.319,5.773 2.691,9.272 2.691,9.272 L2.691,33.11 C2.355,34.415 3.944,35.760 3.944,35.760 L20.241,45.506 C22.181,46.563 24.754,45.506 24.754,45.506 L39.547,36.760 C42.542,35.101 42.305,33.261 42.305,33.261 L42.305,10.21 C42.744,6.362 39.547,5.273 39.547,5.273 ZM22.498,29.249 C22.498,29.249 20.296,30.270 17.471,29.527 C17.471,29.527 11.40,24.895 9.930,22.847 C9.930,22.847 8.928,20.82 12.165,20.620 L18.29,25.909 C18.29,25.909 20.7,27.278 21.660,25.630 L33.111,15.331 C33.111,15.331 36.354,13.802 35.903,17.280 C35.903,17.280 23.525,28.960 22.498,29.249 Z"/>
</svg>
