<svg 
 xmlns="http://www.w3.org/2000/svg"
 xmlns:xlink="http://www.w3.org/1999/xlink"
 width="37px" height="49px">
<path fill-rule="evenodd"  fill="#2c2c2c"
 d="M6.735,0.81 C13.621,0.12 25.816,0.75 30.789,0.122 C35.69,0.293 37.258,2.911 36.964,7.91 C36.963,12.902 37.42,33.480 36.969,42.796 C36.942,46.321 33.703,49.190 30.721,48.989 C27.599,48.980 10.230,49.20 6.407,48.989 C1.816,48.952 0.32,45.561 0.0,42.142 C0.29,39.11 0.0,37.647 0.0,33.502 C0.0,26.383 0.0,19.263 0.0,12.145 C0.0,9.586 0.18,8.735 0.0,6.439 C0.35,2.18 3.676,0.138 6.735,0.81 ZM5.914,3.505 C5.272,3.592 3.580,3.866 3.449,6.276 C3.430,9.944 3.449,13.933 3.449,18.177 C3.449,23.937 3.431,34.76 3.449,41.327 C3.392,44.432 4.216,45.789 7.228,45.729 C12.631,45.647 26.383,45.777 31.49,45.729 C33.16,45.160 33.612,44.270 33.678,42.631 C33.792,39.811 33.678,36.320 33.678,33.828 C33.678,27.253 33.678,13.503 33.678,6.928 C33.527,3.684 32.236,3.310 29.78,3.505 C20.137,3.445 12.325,3.470 5.914,3.505 ZM14.292,36.762 C17.797,36.817 19.495,36.708 22.999,36.762 C24.321,36.885 24.423,37.577 24.642,37.903 C24.934,38.930 24.849,39.785 23.164,40.349 C19.781,40.329 17.340,40.356 13.635,40.349 C12.247,39.591 12.318,38.763 12.485,37.903 C12.625,37.499 12.877,36.838 14.292,36.762 Z"/>
</svg>
