<?xml version="1.0" standalone="no"?><!DOCTYPE svg PUBLIC "-//W3C//DTD SVG 1.1//EN" "http://www.w3.org/Graphics/SVG/1.1/DTD/svg11.dtd"><svg t="1772248672084" class="icon" viewBox="0 0 1024 1024" version="1.1" xmlns="http://www.w3.org/2000/svg" p-id="8306" xmlns:xlink="http://www.w3.org/1999/xlink" width="200" height="200"><path d="M66.272 66.272h891.456v412.16H1024V0H0v1024h458.816v-66.272H66.272V66.272zM184.32 400.512h219.008v66.272H184.32v-66.272z m0-191.456h640.864v66.272H184.32V209.056z m602.176 339.936A237.504 237.504 0 1 0 1024 786.496a237.792 237.792 0 0 0-237.504-237.504z m133.952 371.456a189.44 189.44 0 0 1-321.984-135.36 189.44 189.44 0 0 1 189.44-189.44 189.44 189.44 0 0 1 189.44 189.44v1.44-0.064a187.616 187.616 0 0 1-56.864 133.92l-0.032 0.032z m-114.912-230.112h-50.624v106.656l86.464 85.632 35.552-35.84-71.392-70.816v-85.632z" p-id="8307"></path></svg>